<svg aria-hidden="true" style="position:absolute;width:0;height:0" xmlns="http://www.w3.org/2000/svg" overflow="hidden"><defs><symbol id="icon-antenna" viewBox="0 0 32 32"><path fill="var(--color1, #212121)" d="M30.8 22.1l-8.5-8.5 1-4.6.7.1a2.2 2.2 0 10-2-1.4l-5 .6L9 .2a.5.5 0 00-.4-.2.5.5 0 00-.4.2L6.7 1.7a.5.5 0 000 .7l.8.8A15 15 0 0010 21a.5.5 0 00.2.1v6.7H3.6a2.7 2.7 0 00-2.6 2.7v1c0 .4.2.6.5.6h24.5a.5.5 0 00.6-.5v-1.1a2.7 2.7 0 00-2.7-2.7h-6.4V25a15 15 0 003 .3 14.9 14.9 0 007-1.8l1 .9a.5.5 0 00.3.1.5.5 0 00.4-.1l1.5-1.5a.5.5 0 000-.8zM23.3 6.2a1 1 0 11.7 1.9 1 1 0 01-.7-1.9zM22 9.7l-.6 3-1.1-1.2L22 9.7zm-.6-.9l-1.9 2L18 9.2l3.4-.5zm2.6 20a1.6 1.6 0 011.6 1.6v.5H2.1v-.5a1.6 1.6 0 011.6-1.6H24zm-7.5-2.1v1h-5.3v-1h5.3zm-5.3-1.1v-4c0-1.3 1.2-2.4 2.7-2.4s2.6 1 2.6 2.3v4.1h-5.3zm6.4-1.7v-2.4c0-1.8-1.7-3.4-3.7-3.4a3.8 3.8 0 00-3.3 1.8A13.9 13.9 0 018.3 4L27 22.7a13.8 13.8 0 01-9.3 1.2zm11.3-.7L7.9 2l.7-.7 8 8 13 13.2-.7.7z"/><path fill="var(--color2, #2196f3)" d="M13.9 20.3a1.6 1.6 0 100 3.2 1.6 1.6 0 100-3.2zm.3 2a.5.5 0 11-.3-1 .5.5 0 01.3 1z"/></symbol><symbol id="icon-astronaut" viewBox="0 0 32 32"><path fill="var(--color2, #2196f3)" d="M32 4.5a.5.5 0 00-.5-.3l-1.9-.3-.8-1.7c-.2-.4-.8-.4-1 0L27 3.9l-2 .3a.5.5 0 00-.2.9L26 6.4l-.3 2c0 .1 0 .3.2.4a.5.5 0 00.6 0l1.7-.8 1.7.9a.5.5 0 00.8-.6l-.3-1.9 1.3-1.3a.5.5 0 00.2-.6zM29.5 6a.5.5 0 00-.1.4l.1 1.1-1-.5a.5.5 0 00-.4 0l-1 .5.1-1a.5.5 0 00-.1-.5l-.8-.8 1.1-.2a.5.5 0 00.4-.3l.5-1 .5 1a.5.5 0 00.4.3l1.1.2-.8.8zm-3.4 14.6h-1v1h1v-1zm0 2.2h-1v1h1v-1zm1.1-1.1h-1v1h1v-1zm-2.1 0H24v1h1v-1zm-2.7 4.8h-1v1h1v-1zm0 2.1h-1v1h1v-1zm1-1h-1v1h1v-1zm-2 0h-1.1v1h1v-1zM16 24.3h-1v1h1v-1zm0 2h-1v1.2h1v-1.1zm1-1h-1v1h1v-1zm-2 0h-1.1v1h1v-1zM5.8 6.1H4.8v1h1v-1zm0 2.2H4.8v1h1v-1zM7 7.2H5.8v1h1v-1zm-2.2 0h-1v1h1v-1z"/><path fill="var(--color1, #212121)" d="M24.7 14.2a1.8 1.8 0 00-1.2-.7 1.8 1.8 0 00-1.3.3l-1.3 1-1.9 1.4-1.3-.6a7 7 0 00-2.9-13.2 7 7 0 00-7 7A6.9 6.9 0 009 13H6.2a.5.5 0 00-.2 0l-3.2 1.6-2 1a1.8 1.8 0 00-.6 2.2c.2.5.6.8 1 1a1.8 1.8 0 001.4-.2L4 18l2.3-1.2h1.3l-5.4 5.4-1.3 1.3a1.7 1.7 0 000 2.4 1.7 1.7 0 002.3 0l1.3-1.3 1.8-1.3.9.9-1.8 1.7-1.3 1.4a1.7 1.7 0 000 2.3 1.7 1.7 0 002.3 0l3.5-3.4 1-1 5.2-5.7 3.5.5a.5.5 0 00.2 0l.1-.1 3.3-2.1 1.3-1.3c.7-.6.8-1.6.2-2.3zM2.1 17.8a.7.7 0 01-.5 0 .7.7 0 01-.2-1.2l1.3-.7.4 1.3-1 .6zm3.5-1.9l-1.5.8-.5-1.2 2-1v1.4zm15.1-6.6a5.8 5.8 0 01-.6 2.6l-4.2-2a1.9 1.9 0 00-.7-1.3l1.4-4.9c2.4.8 4.1 3 4.1 5.6zM9 9.3a5.9 5.9 0 016.7-5.8L14 8.3a1.9 1.9 0 100 3.7c.7 0 1.3-.4 1.6-1l3.9 1.8a5.9 5.9 0 01-4.8 2.4A5.9 5.9 0 019 9.3zm6 .8a.8.8 0 01-1.6 0 .8.8 0 011.6 0zm-12.4 15a.6.6 0 01-.9 0 .6.6 0 010-.8l1-1 .8.9-1 1zM5.7 29a.6.6 0 01-.9 0 .6.6 0 010-.9l1-1 .8 1-1 .9zm3.5-3.5l-1.8 1.8-.9-.9 1.8-1.7.1-.2v-.1-.1-.1-.1a.6.6 0 000-.1h-.1l-1.6-1.7a.5.5 0 00-.1 0 .5.5 0 00-.1-.1.5.5 0 00-.1 0 .5.5 0 00-.1 0 .5.5 0 00-.1 0 .5.5 0 00-.1 0H6l-1.8 1.4-.9-1 2.4-2.3 4.4 4.3-1 1zm6.8-7a.6.6 0 00-.4 0 .5.5 0 000 .1l-4.8 5.2-4.3-4.2 2.8-2.9a.5.5 0 00-.4-.9H6.7v-1.6H10a7 7 0 005 2.2c.4 0 .8 0 1.2-.2l.1.1 2.5 1 .1.7.2 1-3-.5zm4 .2l-.3-1.6 1.5-1 .9 1.2-2 1.4zm3.8-2.9l-.9.8-.9-1.2.8-.6a.7.7 0 01.6-.2.7.7 0 01.5.3.7.7 0 01-.1 1z"/><path fill="var(--color1, #212121)" d="M13.6 18.5l-2.1-2a.5.5 0 00-.8 0l-2.1 2a.5.5 0 000 .8l2.1 2.1a.5.5 0 00.8 0l2.1-2.1a.5.5 0 000-.8zm-2.5 1.8l-1.4-1.4 1.4-1.4 1.4 1.4-1.4 1.4zm6-15.2L17 6s1.7.5 1.7 2.2h1.1c0-2-1.7-3-2.5-3.2zm2.6 4.2h-1v1h1v-1z"/></symbol><symbol id="icon-clock" viewBox="0 0 32 32"><path fill="var(--color1, #212121)" d="M31.3 15.3a15.3 15.3 0 10-30.6 0A15.3 15.3 0 0011.3 30a.7.7 0 00.6 0 .6.6 0 00.2-.4l4-12.3a2 2 0 10-1-3.6l-5-5.1a.6.6 0 00-1 .9l5.2 5a1.9 1.9 0 00.5 2.4l-3.7 11.7a14 14 0 1118-8.4 14 14 0 01-7.4 8l-.4-1.9a.6.6 0 00-1-.3l-3.9 3.4a.6.6 0 00.2 1.1l5 1.6a.6.6 0 00.8-.8l-.4-1.8a15.3 15.3 0 009.3-14.1zM16 14.7a.6.6 0 110 1.2.6.6 0 010-1.2zm2 14.8l2.3-2 .6 3-2.8-1z"/><path fill="var(--color2, #2196f3)" d="M15.4 3.2v1.3a.6.6 0 101.2 0V3.2a.6.6 0 00-1.2 0zM3.9 14.7a.6.6 0 000 1.2h1.3a.6.6 0 100-1.2H3.9zM28 15.9a.6.6 0 100-1.2h-1.3a.6.6 0 000 1.2h1.3z"/></symbol><symbol id="icon-diagram" viewBox="0 0 32 32"><path fill="var(--color2, #2196f3)" d="M15 15h1v4.8h-1V15zm4.2 2.1h1v2.7h-1V17zm-8.5 1.6h1v1h-1v-1zm-3.2-.5h1v1.6h-1v-1.6z"/><path fill="var(--color1, #212121)" d="M1.6 28.3h25.6a1.6 1.6 0 001.6-1.6v-2.1a1.6 1.6 0 00-1.6-1.6h-.5V9.7l3-2.9a1.6 1.6 0 10-.8-.8l-2.2 2.2V7A1.6 1.6 0 0025 5.4H3.7A1.6 1.6 0 002.1 7v16h-.5A1.6 1.6 0 000 24.6v2a1.6 1.6 0 001.6 1.7zM30.4 4.8a.5.5 0 110 1.1.5.5 0 010-1zM3.2 7c0-.3.2-.6.5-.6h21.4c.2 0 .5.3.5.6v2.2l-1 1V8a.5.5 0 00-.6-.5H4.8a.5.5 0 00-.5.5v13.4c0 .3.2.5.5.5H24a.5.5 0 00.5-.5v-9.7l1-1V23H3.3V7zM8 13.9a1.6 1.6 0 101.1 2.7l1.9 1a.5.5 0 00.6-.1l4-4.5 3.8 3a.5.5 0 00.7-.1l3.4-3.2v8.1H5.3V8.6h18.2v2.6l-3.8 3.6-4-3a.5.5 0 00-.6.1l-4 4.5-1.5-.7v-.2A1.6 1.6 0 008 13.9zm.5 1.6a.5.5 0 11-1 0 .5.5 0 011 0zm3.2 8.5h5.4v.6a.5.5 0 01-.6.5h-4.2a.5.5 0 01-.6-.5V24zm-10.6.6c0-.3.2-.6.5-.6h9v.6a1.6 1.6 0 001.7 1.6h4.2a1.6 1.6 0 001.6-1.6V24h9c.4 0 .6.3.6.6v2a.5.5 0 01-.5.6H1.6a.5.5 0 01-.5-.5v-2.1z"/></symbol><symbol id="icon-envelope" viewBox="0 0 43 32"><path fill="var(--color3, #757575)" d="M38.7 0H4a4 4 0 00-4 4v24a4 4 0 004 4h34.7a4 4 0 004-4V4a4 4 0 00-4-4zm0 2.7h.5L21.3 18.3 3.5 2.8a1.3 1.3 0 01.5-.1h34.7zm0 26.6H4A1.3 1.3 0 012.7 28V5.6L20.5 21a1.3 1.3 0 001.7 0L40 5.6V28c0 .7-.6 1.3-1.3 1.3z"/></symbol><symbol id="icon-facebook" viewBox="0 0 32 32"><path fill="var(--color4, #fff)" d="M21.3 5.3h3v-5C23.6.1 22 0 20 0c-4.2 0-7.1 2.6-7.1 7.5V12H8.2v5.7H13V32h5.7V17.7h4.5l.7-5.7h-5.2V8c0-1.6.4-2.7 2.7-2.7z"/></symbol><symbol id="icon-facebook2" viewBox="0 0 32 32"><path fill="var(--color2, #afb1b8)" d="M21.3 5.3h3v-5C23.6.1 22 0 20 0c-4.2 0-7.1 2.6-7.1 7.5V12H8.2v5.7H13V32h5.7V17.7h4.5l.7-5.7h-5.2V8c0-1.6.4-2.7 2.7-2.7z"/></symbol><symbol id="icon-instagram" viewBox="0 0 32 32"><path fill="var(--color4, #fff)" d="M32 9.4c-.1-1.7-.4-2.9-.8-3.9a7.8 7.8 0 00-1.8-2.8A7.9 7.9 0 0026.5.8c-1-.4-2.1-.6-3.8-.7A109.5 109.5 0 005.6.8a7.8 7.8 0 00-2.9 1.9A7.9 7.9 0 001 5.5C.5 6.5.2 7.7.2 9.4a109.5 109.5 0 00.7 17 7.9 7.9 0 001.8 3 7.9 7.9 0 002.9 1.8c1 .4 2.2.6 3.9.7a117.2 117.2 0 0017-.7 8.2 8.2 0 004.7-4.7c.4-1 .7-2.2.8-3.9V16 9.4zm-3 13c0 1.6-.2 2.5-.5 3a5.3 5.3 0 01-3 3c-.6.3-1.4.6-3 .6a112.7 112.7 0 01-15.9-.5 5 5 0 01-1.8-1.2 5 5 0 01-1.2-1.9c-.2-.5-.5-1.4-.5-3a112.7 112.7 0 01.5-15.8 4.9 4.9 0 011.2-1.9 5 5 0 011.8-1.2c.6-.2 1.5-.4 3-.5a112.7 112.7 0 0116 .5 5 5 0 011.7 1.2 5 5 0 011.2 1.9c.3.5.5 1.4.6 3a112.7 112.7 0 010 12.9z"/><path fill="var(--color4, #fff)" d="M16 7.8a8.2 8.2 0 100 16.4 8.2 8.2 0 000-16.4zm0 13.5a5.3 5.3 0 010-10.6 5.3 5.3 0 010 10.6zM26.6 7.5a2 2 0 11-3.8 0 2 2 0 013.8 0z"/></symbol><symbol id="icon-instagram2" viewBox="0 0 32 32"><path fill="var(--color2, #afb1b8)" d="M32 9.4c-.1-1.7-.4-2.9-.8-3.9a7.8 7.8 0 00-1.8-2.8A7.9 7.9 0 0026.5.8c-1-.4-2.1-.6-3.8-.7A109.5 109.5 0 005.6.8a7.8 7.8 0 00-2.9 1.9A7.9 7.9 0 001 5.5C.5 6.5.2 7.7.2 9.4a109.5 109.5 0 00.7 17 7.9 7.9 0 001.8 3 7.9 7.9 0 002.9 1.8c1 .4 2.2.6 3.9.7a117.2 117.2 0 0017-.7 8.2 8.2 0 004.7-4.7c.4-1 .7-2.2.8-3.9V16 9.4zm-3 13c0 1.6-.2 2.5-.5 3a5.3 5.3 0 01-3 3c-.6.3-1.4.6-3 .6a112.7 112.7 0 01-15.9-.5 5 5 0 01-1.8-1.2 5 5 0 01-1.2-1.9c-.2-.5-.5-1.4-.5-3a112.7 112.7 0 01.5-15.8 4.9 4.9 0 011.2-1.9 5 5 0 011.8-1.2c.6-.2 1.5-.4 3-.5a112.7 112.7 0 0116 .5 5 5 0 011.7 1.2 5 5 0 011.2 1.9c.3.5.5 1.4.6 3a112.7 112.7 0 010 12.9z"/><path fill="var(--color2, #afb1b8)" d="M16 7.8a8.2 8.2 0 100 16.4 8.2 8.2 0 000-16.4zm0 13.5a5.3 5.3 0 010-10.6 5.3 5.3 0 010 10.6zM26.6 7.5a2 2 0 11-3.8 0 2 2 0 013.8 0z"/></symbol><symbol id="icon-linkedin" viewBox="0 0 32 32"><path fill="var(--color4, #fff)" d="M32 32V20.3c0-5.8-1.2-10.2-8-10.2a7 7 0 00-6.2 3.4h-.1v-2.9h-6.4V32H18V21.4c0-2.8.6-5.5 4-5.5s3.5 3.2 3.5 5.7V32H32zM.5 10.6h6.7V32H.5V10.6zM3.8 0C1.8 0 0 1.7 0 3.8s1.7 4 3.8 4c2.2 0 3.9-1.8 3.9-4A3.8 3.8 0 003.8 0z"/></symbol><symbol id="icon-linkedin2" viewBox="0 0 32 32"><path fill="var(--color2, #afb1b8)" d="M32 32V20.3c0-5.8-1.2-10.2-8-10.2a7 7 0 00-6.2 3.4h-.1v-2.9h-6.4V32H18V21.4c0-2.8.6-5.5 4-5.5s3.5 3.2 3.5 5.7V32H32zM.5 10.6h6.7V32H.5V10.6zM3.8 0C1.8 0 0 1.7 0 3.8s1.7 4 3.8 4c2.2 0 3.9-1.8 3.9-4A3.8 3.8 0 003.8 0z"/></symbol><symbol id="icon-logo1" viewBox="0 0 29 32"><path fill="var(--color5, #afb1b8)" d="M3.8 0l4.7 4.4h13v12.4l4.7 4.4V0H3.8z"/><path fill="var(--color5, #afb1b8)" d="M0 4.2v20.6h21.8v-8.1L8.7 4.2H0zm17.6 17.6H3.4V8h1v12.9h13.2v1zM6.3 28.7l.5-1.1h.4L6.5 29v.9H6V29l-.8-1.4h.4l.6 1zm2.2.6h-.9l-.2.6H7l.9-2.3h.4l.8 2.3h-.4l-.2-.6zm-.8-.3h.7l-.3-1-.4 1zm2.4.2V29l.4-.4-.2-.2V28l.1-.4.5-.1a.6.6 0 01.4.1.5.5 0 01.1.4.5.5 0 010 .2.9.9 0 01-.3.3H11l.4.6a.9.9 0 000-.4h.4c0 .3 0 .5-.2.7l.4.4h-.5l-.1-.2-.6.2c-.2 0-.4 0-.5-.2a.6.6 0 01-.2-.5zm.7.4a.6.6 0 00.4-.1l-.5-.6c-.2.1-.2.2-.2.3v.3h.3zm-.2-1.5l.2.4.1-.2h.1a.3.3 0 000-.2.2.2 0 000-.2.2.2 0 00-.1 0h-.2v.2zm4.1 1a.8.8 0 01-.2.6 1 1 0 01-.6.2.9.9 0 01-.5-.1c-.2-.1-.3-.2-.3-.4l-.2-.6v-.2c0-.2 0-.4.2-.5a.9.9 0 01.8-.5c.2 0 .4 0 .6.2l.2.5h-.3l-.2-.3-.3-.1a.5.5 0 00-.4.2l-.2.5v.2c0 .3 0 .4.2.6l.4.2.3-.1.2-.4h.3zm2.2-.3l-.1.6a.9.9 0 01-.3.4 1 1 0 01-.5 0 1 1 0 01-.5 0 .9.9 0 01-.4-.4 1.4 1.4 0 010-.6v-.1-.6a.9.9 0 01.4-.4l.5-.1a.9.9 0 01.8.5l.1.6zm-.4-.1l-.1-.6a.5.5 0 00-.4-.2.5.5 0 00-.4.2 1 1 0 00-.2.5v.2c0 .2 0 .4.2.6l.4.2a.5.5 0 00.4-.2l.1-.6v-.1z"/></symbol><symbol id="icon-logo2" viewBox="0 0 25 32"><path fill="var(--color5, #afb1b8)" d="M10.4 1.8h.6c.8 0 1.5.2 2.2.4V.4a13 13 0 00-2.3-.4 18.1 18.1 0 00-.9 0h-.2a18.4 18.4 0 00-4.5.6 18.3 18.3 0 00-4.8 2V20A19.5 19.5 0 015 18.2a20 20 0 013.9-.6h.7v-1.8a21.2 21.2 0 00-5 .7 23.8 23.8 0 00-1.7.5l-.7.2V3.6l.3-.1A17.4 17.4 0 019 1.8H10.4z"/><path fill="var(--color5, #afb1b8)" d="M14.8 3.7a15.8 15.8 0 01-2.6-.3l-.8-.1v17.3a13.8 13.8 0 003.4.4 18.4 18.4 0 004.6-.6 18.4 18.4 0 004.7-2V1.3A19.6 19.6 0 0119.6 3a19.4 19.4 0 01-4.8.7zm7 .2l.6-.2v13.7l-.3.1a17 17 0 01-3.2 1.1 16.5 16.5 0 01-5.3.5h-.4V5h1.6a21.1 21.1 0 005.2-.6 26.8 26.8 0 001.7-.6zM1.6 26a1 1 0 00-.7-.2 1 1 0 00-.4 0 1 1 0 00-.5.6 1 1 0 000 .4V29v.5l.2.3a.8.8 0 00.4.2H1a1 1 0 00.9-.6 1 1 0 000-.4v-.2h-.5v.2a.5.5 0 010 .2.4.4 0 01-.2.1.4.4 0 01-.2.1.3.3 0 01-.3-.1.5.5 0 010-.3v-2.2a.7.7 0 010-.4.3.3 0 01.3 0 .3.3 0 01.3 0V27H2v-.3a1 1 0 00-.3-.7zm3.6 0A1 1 0 004 26a1 1 0 00-.2.4 1.1 1.1 0 00-.1.4V29a1 1 0 000 .4l.3.3a1 1 0 00.4.2 1 1 0 00.7 0c.1 0 .2 0 .3-.2a1 1 0 00.2-.3 1 1 0 00.1-.4v-2.3a1 1 0 000-.4 1 1 0 00-.3-.3zM5 29a.4.4 0 01-.1.4.4.4 0 01-.6 0 .4.4 0 010-.3v-2.3a.4.4 0 010-.3.4.4 0 01.6 0 .4.4 0 01.1.3V29zm5 1v-4.2h-.5L8.7 28l-.8-2.3h-.6V30H8v-2.6l.6 1.8h.3l.6-1.8V30h.6zm3.5-3.9a.8.8 0 00-.3-.2 1.4 1.4 0 00-.5 0h-.9V30h.6v-1.7h.3l.6-.1a.9.9 0 00.3-.3 1 1 0 00.2-.4V27a2.4 2.4 0 000-.6.9.9 0 00-.3-.4zm-.3 1.3a.5.5 0 010 .2.3.3 0 01-.2.2.6.6 0 01-.3 0h-.3v-1.4h.3a.6.6 0 01.3 0 .3.3 0 01.2.2.6.6 0 010 .2v.6zm3.2-1.6h-.5l-1 4.3h.6l.2-1h.8l.2 1h.6l-1-4.3zm-.6 2.8l.3-1.6.3 1.6h-.6zm4.5-.2l-1-2.6h-.5V30h.6v-2.6l1 2.6h.5v-4.3h-.6v2.6zm3.7-2.6l-.5 1.7-.5-1.7h-.7l.9 2.5V30h.6v-1.8l.8-2.5H24zM0 31.2h.3v.8h.2v-.8h.3V31H0v.2zm2.4-.2l-.3 1h.2v-.2h.4l.1.2H3l-.3-1h-.3zm0 .6l.2-.4v.4h-.2zm2.5 0H5v.1a.4.4 0 01-.2.1.2.2 0 01-.3 0 .4.4 0 010-.3c0-.2 0-.3.3-.3a.2.2 0 01.2.1h.2c0-.2-.2-.3-.4-.3a.5.5 0 00-.4.1.5.5 0 00-.1.4.5.5 0 00.1.4.5.5 0 00.4.1.6.6 0 00.4-.2v-.3h-.4v.1zm2.4-.6h-.2v1h.7v-.2h-.5V31zm2.1 0h-.2v1h.2v-1zm2 .7l-.3-.7h-.2v1h.2v-.7l.4.7h.2v-1h-.2v.7zm2-.2h.4v-.1h-.5v-.2h.5V31h-.7v1h.8v-.2h-.6v-.3zm4.4-.1h-.4V31h-.2v1h.2v-.4h.4v.4h.2v-1h-.2v.4zm1.8.1h.5v-.1h-.5v-.2h.6V31h-.7v1h.7v-.2h-.6v-.3zm2.6 0c.1 0 .2 0 .2-.2a.2.2 0 000-.2.6.6 0 00-.4-.1h-.4v1h.2v-.4a.3.3 0 01.2 0l.3.4h.2l-.1-.2a.7.7 0 00-.2-.3zm-.2 0h-.2v-.3h.2a.5.5 0 01.2 0 .1.1 0 010 .1.5.5 0 01-.2.1zm2 0h.6v-.1H24v-.2h.5V31h-.7v1h.7v-.2h-.5v-.3z"/></symbol><symbol id="icon-logo3" viewBox="0 0 31 32"><path fill="var(--color5, #afb1b8)" d="M4.7 31.1l.2.2-.4.3a1.5 1.5 0 01-.6.1 1.5 1.5 0 01-.6-.1 1.3 1.3 0 01-.7-.7 1.6 1.6 0 010-.6v-.6a1.3 1.3 0 01.8-.7 1.7 1.7 0 011.1 0l.4.2-.1.2a.1.1 0 01-.1 0h-.2a1 1 0 00-.3-.2 1.2 1.2 0 00-.2 0 1.1 1.1 0 00-.5 0 1 1 0 00-.3.3 1 1 0 00-.2.3v.5.5l.2.3a.9.9 0 00.3.2H4.1a.9.9 0 00.4 0l.1-.2a.1.1 0 01.1 0zm4.4-.8v.6l-.3.4-.5.3a1.7 1.7 0 01-1.2 0 1.3 1.3 0 01-.7-.7 1.6 1.6 0 010-1.2l.3-.4.4-.3h1.2c.2 0 .3.2.5.3l.2.4.1.6zm-.4 0a1.3 1.3 0 000-.5.9.9 0 00-.6-.5 1.2 1.2 0 00-.8 0 .9.9 0 00-.5.5 1.5 1.5 0 000 1 .9.9 0 00.5.5c.3.1.6.1.8 0a.9.9 0 00.6-.5v-.5zm3.5.5a1 1 0 01.1-.1l1-1.7a.2.2 0 01.1 0h.3v2.7h-.3v-2.1a.8.8 0 010-.1l-1 1.7h-.2a.2.2 0 01-.2 0l-1-1.7v2.2h-.3v-2.8h.4l1 1.8zm3.6-.2v1h-.3V29h.8a1.7 1.7 0 01.5 0 1 1 0 01.3.2.7.7 0 01.2.3 1 1 0 010 .4.8.8 0 010 .3.7.7 0 01-.2.3 1 1 0 01-.3.2 1.5 1.5 0 01-.5 0h-.5zm0-.3h.5a1 1 0 00.3 0 .6.6 0 00.2-.1.5.5 0 00.1-.2.6.6 0 000-.2.5.5 0 000-.4.8.8 0 00-.6-.2h-.5v1.1zm5.2 1.4h-.3a.1.1 0 01-.1 0 .2.2 0 010-.1l-.3-.7H19l-.3.7a.1.1 0 01-.1 0h-.3l1.1-2.7h.4l1.2 2.8zm-2-1h1.2l-.5-1.2a1.8 1.8 0 010-.2l-.1.1v.1l-.5 1.2zm3.6-1.8a.2.2 0 01.1 0l1.7 2.2v-2.2h.3v2.8h-.2a.2.2 0 01-.1 0l-1.7-2.2a.8.8 0 010 .1v2h-.3V29h.2zm5 1.7v1h-.4v-1L26 28.9h.3a.1.1 0 01.1 0 .3.3 0 010 .1l.7 1a1.3 1.3 0 01.2.3v-.1-.1l.7-1.1a.1.1 0 01.2 0h.3l-1 1.6zM12 24.3h.5c2.6-1 4.7-2.9 6.3-5.1s2.2-5 2.2-7.7L18 8.8c.6 2.9.4 5.9-.7 8.6s-3 5.1-5.4 6.9z"/><path fill="var(--color5, #afb1b8)" d="M11 24.2c2.6-1.8 4.6-4.3 5.7-7.1s1.3-6 .5-9l-4-3.8A18 18 0 0111 24.2zm13.7-9.5a14 14 0 01-4.8 7.6 15 15 0 01-2.2 1.6c2-.6 3.7-1.5 5.2-2.8s2.7-3 3.4-4.8l-1.6-1.6z"/><path fill="var(--color5, #afb1b8)" d="M24 14.3L21.8 12c0 2.5-.8 5-2.2 7.2s-3.4 3.9-5.7 5a14 14 0 001.6 0 14 14 0 008.7-10zM11.4 2.7L8.5 0C6 1 3.9 2.5 2.3 4.6S0 9.2 0 11.8c0 2.8 1 5.5 2.8 7.7s4.4 3.8 7.3 4.5a17.6 17.6 0 001.2-21.3zm19.2 11.2c0-3.4-1.4-6.6-3.9-9s-5.8-3.6-9.3-3.6a13.7 13.7 0 00-4.8.8l17.1 16.3c.6-1.4 1-3 1-4.5z"/></symbol><symbol id="icon-logo4" viewBox="0 0 60 32"><path fill="var(--color5, #afb1b8)" d="M9.2 9.5a3 3 0 00-3 3 3 3 0 003 3 3 3 0 003-3 3 3 0 00-3-3zm22.5-.9c0-2.3-1-4.5-2.6-6S25.2 0 23 0c-2.3 0-4.6 1-6.2 2.5S14 6.3 14 8.6v12.6s17.6-2 17.6-12.6zM0 25.3c0 1.6.7 3 1.8 4.2s2.7 1.8 4.3 1.8c1.7 0 3.2-.7 4.4-1.8s1.8-2.6 1.8-4.2v-8.8S0 18 0 25.3zm6.1 1.6l-.9-.3c-.3-.2-.4-.4-.5-.7l-.1-1 .4-.7c.2-.2.5-.4.8-.4h1c.3 0 .5.4.7.6a1.5 1.5 0 01.1 1.5 1.6 1.6 0 01-.8.8L6 27zm12.6-1h-1.3v1.3h-.6V24h2v.5h-1.4v.9h1.3v.5zm3.1-.2c0 .3 0 .6-.2.8l-.4.5c-.2.2-.5.2-.7.2-.3 0-.5 0-.7-.2l-.5-.5a1.9 1.9 0 01-.2-.8v-.2c0-.3 0-.6.2-.8a1.3 1.3 0 01.5-.5c.2-.2.4-.2.7-.2l.7.2c.2 0 .3.3.4.5.2.2.2.5.2.8v.2zm-.6-.2l-.2-.7c-.1-.1-.3-.3-.5-.3a.6.6 0 00-.5.3c-.2.1-.2.4-.2.7v.2c0 .3 0 .5.2.7s.2.3.5.3c.2 0 .4-.1.5-.3l.2-.7v-.2zm2.7.8a.3.3 0 00-.1-.2c0-.1-.2-.2-.5-.2a3.4 3.4 0 01-.5-.3c-.4-.2-.5-.4-.5-.7l.1-.5a1 1 0 01.4-.3l.6-.1h.6a1 1 0 01.4.4l.2.5h-.7a.4.4 0 00-.1-.3l-.4-.1a.6.6 0 00-.4 0 .3.3 0 000 .4v.2l.5.2.8.4.3.6a.8.8 0 01-.3.7l-.9.2-.6-.1a1 1 0 01-.5-.4 1 1 0 01-.1-.5h.6c0 .3.2.5.6.5a.6.6 0 00.4 0 .3.3 0 00.1-.4zm3.5-1.8h-1v2.7h-.6v-2.7h-1V24h2.6v.5zm2.3 1.3h-1.2v.9h1.4v.5h-2.1V24h2.1v.5h-1.4v.8h1.2v.5zm1.8.2H31v1.2h-.7V24h1.2c.4 0 .7 0 .9.3s.3.4.3.7a1 1 0 01-.2.5 1 1 0 01-.4.4l.7 1.3H32l-.6-1.2zm-.5-.5h.5l.4-.1.1-.4a.5.5 0 00-.1-.3l-.4-.2H31v1zm4 .6v1h-.7v-3H36a1 1 0 01.5.4l.1.6c0 .3-.1.5-.3.7-.2.2-.5.3-.9.3h-.6zm0-.6h.9l.1-.4v-.4l-.5-.2H35v1zm4 .3h-1.2v.9h1.5v.5h-2.1V24h2v.5h-1.4v.8h1.3v.5zm3.1-1.3h-1v2.7h-.6v-2.7h-1V24h2.6v.5zm2.3 1.3H43v.9h1.5v.5h-2.1V24h2.1v.5h-1.5v.8h1.3v.5zm1.8.2h-.6v1.2H45V24h1.2c.3 0 .6 0 .8.3s.3.4.3.7a1 1 0 01-.1.5 1 1 0 01-.4.4l.7 1.3h-.7l-.6-1.2zm-.6-.5h.6l.4-.1V25a.5.5 0 000-.3l-.4-.2h-.6v1zm3.9.8a.3.3 0 00-.1-.2l-.5-.2a3.4 3.4 0 01-.6-.3c-.3-.2-.5-.4-.5-.7 0-.2 0-.4.2-.5a1 1 0 01.4-.3l.6-.1h.6a1 1 0 01.4.4l.1.5h-.6a.4.4 0 00-.1-.3l-.4-.1a.6.6 0 00-.4 0 .3.3 0 00-.1.4l.1.2.5.2.8.4c.2.1.2.4.2.6a.8.8 0 01-.3.7l-.8.2-.7-.1a1 1 0 01-.4-.4 1 1 0 01-.2-.5h.7c0 .3.2.5.6.5a.6.6 0 00.4 0 .3.3 0 000-.4z"/></symbol><symbol id="icon-logo5" viewBox="0 0 40 32"><path fill="var(--color5, #afb1b8)" d="M3 26.7c.2.2.3.5.3.7a1 1 0 01-.4.9 1.6 1.6 0 01-1 .3H0v-4.3h1.8c.4 0 .7 0 1 .2a1 1 0 01.4.9c0 .2 0 .4-.2.6a1 1 0 01-.6.4c.3 0 .5.1.7.3zM1 26.1h.7a.7.7 0 00.5-.2.5.5 0 00.2-.4.5.5 0 00-.2-.4.8.8 0 00-.5-.2H1v1.2zm1.3 1.7a.5.5 0 00.2-.5.6.6 0 00-.2-.4.8.8 0 00-.5-.2H.9V28h.8a.8.8 0 00.5-.1zm4.6.8l-1-1.7h-.4v1.7h-.9v-4.3h1.7c.4 0 .8 0 1.1.3a1.4 1.4 0 01.1 1.8 1.3 1.3 0 01-.7.5l1 1.7h-1zm-1.4-2.3H6c.5 0 .8-.2.8-.6a.6.6 0 00-.2-.5.8.8 0 00-.6-.2h-.7v1.3zm6.2 1.4H9.8l-.3 1h-.9l1.6-4.4h1l1.6 4.3h-1l-.2-.9zm-.3-.6l-.6-1.9-.6 1.9h1.2zm6.3 1.5h-1l-1.9-3v3H14v-4.3h.8l2 3v-3h.9v4.3zm4.9-1a1.9 1.9 0 01-.8.7 2.5 2.5 0 01-1.2.3H19v-4.3h1.5c.4 0 .8 0 1.2.2l.8.8a2.5 2.5 0 010 2.3zm-1-.1a1.6 1.6 0 000-2.1 1.5 1.5 0 00-1-.4h-.7v2.8h.6a1.5 1.5 0 001.1-.3zM12.1 0s11.2 4.2 11 10.4v10.4s-11.2-4.3-11-10.4V0zm21 18.3a15.3 15.3 0 017-2.6v-3.2a14.6 14.6 0 00-7 5.8z"/><path fill="var(--color5, #afb1b8)" d="M31.8 19.3a15.2 15.2 0 018.4-7.5V2.4s-16 6-15.6 14.8V32l1.8-.8v-1.4a15.4 15.4 0 015.4-10.5z"/><path fill="var(--color5, #afb1b8)" d="M30.3 24.8a15.3 15.3 0 01.5-3 14.3 14.3 0 00-3.4 9l3.1-1.7a15.4 15.4 0 01-.2-4.3zm.6 0a14.7 14.7 0 00.2 4c4.4-2.7 9.3-6.7 9-11.6v-.4a14.3 14.3 0 00-8.2 3.9 14.6 14.6 0 00-1 4.2z"/></symbol><symbol id="icon-logo6" viewBox="0 0 62 32"><path fill="var(--color5, #afb1b8)" d="M31.1 14.9a2.3 2.3 0 01-.4-1.5v-2c0-.7.2-1.2.4-1.5s.7-.5 1.4-.5c.6 0 1 .1 1.3.4.2.4.4.8.3 1.3v.5h-1V11a2.8 2.8 0 000-.5.5.5 0 00-.2-.3.6.6 0 00-.4-.1.6.6 0 00-.4.1.6.6 0 00-.2.3 2.6 2.6 0 000 .5v2.5l.1.8.2.1h.3a.5.5 0 00.4 0 .5.5 0 00.1-.4v-1h1.1v.5c0 .5 0 1-.3 1.3-.3.3-.7.5-1.3.5s-1.1-.2-1.4-.5zm4.5 0c-.3-.3-.4-.8-.4-1.4v-2.2c0-.6.1-1.1.4-1.4s.7-.5 1.4-.5c.6 0 1 .2 1.3.5.3.3.4.8.4 1.4v2.2c0 .6-.1 1-.4 1.4s-.7.5-1.3.5-1.1-.2-1.4-.5zm1.9-.5l.1-.7V11a1.3 1.3 0 00-.1-.6l-.2-.2h-.6l-.2.2a1.3 1.3 0 00-.2.6v2.7c0 .2 0 .5.2.7l.2.1a.7.7 0 00.5 0 .7.7 0 00.3-.1zm2.5-5h1.2l.9 4 .9-4h1l.2 5.9h-.8l-.1-4-.9 4h-.7l-.8-4-.1 4h-.9l.1-5.8zm5.5 0h1.8c1 0 1.6.6 1.6 1.7 0 1-.6 1.6-1.7 1.6h-.6v2.6h-1.1V9.5zM47 12a.8.8 0 00.7-.2l.1-.7a2 2 0 000-.5l-.1-.2h-.2a1 1 0 00-.5-.2h-.4V12h.4zm3.5-2.5h1.2l1.2 5.8h-1l-.3-1.4h-1l-.3 1.4h-1l1.2-5.8zm1 3.8l-.4-2.5-.4 2.5h.8zm2.4-3.8h.8l1.5 3.3V9.5h.9v5.8h-.8l-1.5-3.5v3.5h-1V9.5zm5.4 3.6L58 9.5h1l.8 2.3.7-2.3h1L60.4 13v2.2h-1V13zm-26.5 4.7v.3H32v2.4h-.3V18h-1v-.3h2.2zm2.9 2.7h-.3a.1.1 0 01-.1-.1l-.3-.6h-1.3l-.2.6a.1.1 0 01-.1.1H33l1-2.7h.5l1.1 2.7zm-1.8-1h1l-.4-1a2.2 2.2 0 01-.1-.3v.1l-.1.1-.4 1.1zm3.7.7a1 1 0 00.4 0h.2l.1-.1v-.6H38h-.1v-.3h.9v1a1.6 1.6 0 01-.5.2 1.9 1.9 0 01-.3.1 3.2 3.2 0 01-.3 0 1.6 1.6 0 01-.6 0 1.3 1.3 0 01-.4-.4 1.3 1.3 0 01-.3-.4 1.5 1.5 0 01-.1-.5v-.6l.4-.4.4-.3H38a1.4 1.4 0 01.5.1l.2.1-.1.2a.1.1 0 01-.2 0 1 1 0 00-.2-.1 1.3 1.3 0 00-.2 0 1.6 1.6 0 00-.3 0 1.2 1.2 0 00-.4 0 1 1 0 00-.4.2 1 1 0 00-.2.3v1a1 1 0 00.6.5h.4zm3.6 0h1.2v.3h-1.6v-2.7h.4v2.4zm2.5.3h-.4v-2.7h.4v2.7zm1.4-2.7l1.7 2v-2h.3v2.7h-.2a.2.2 0 01-.1 0l-1.7-2v2h-.3v-2.7h.2zm4.8 0v.3h-1.4v.9h1.1v.3h-1v.9h1.3v.3h-1.7v-2.7h1.7zM9.9 1.4l17 4.5v16l-17-4.6v-16zM9 0v18l19 5.2v-18L9 0z"/><path fill="var(--color5, #afb1b8)" d="M19.1 31.6L0 26.5V8.4l19.1 5.1v18.1z"/><path fill="var(--color5, #afb1b8)" d="M9.2 1.2l16.7 4.4-7.1 6.8L2 7.9l7-6.7zM8.9 0L0 8.4l19.1 5.1L28 5.1 8.9 0zm11.3 30.6l7.8-7.4-7.8-2v9.4z"/></symbol><symbol id="icon-smartphone" viewBox="0 0 20 32"><path fill="var(--color3, #757575)" d="M17 0H3a3 3 0 00-3 3v26a3 3 0 003 3h14a3 3 0 003-3V3a3 3 0 00-3-3zM3 2h14a1 1 0 011 1v21H2V3a1 1 0 011-1zm14 28H3a1 1 0 01-1-1v-3h16v3a1 1 0 01-1 1z"/><path fill="var(--color3, #757575)" d="M4.7 27.5c.4.3.4 1 0 1.3s-1 .4-1.4 0c-.4-.4-.4-1 0-1.3s1-.4 1.4 0z"/></symbol><symbol id="icon-twitter" viewBox="0 0 32 32"><path fill="var(--color4, #fff)" d="M32 6c-1.2.6-2.5 1-3.8 1.1a6.5 6.5 0 003-3.6A13.1 13.1 0 0126.8 5 6.6 6.6 0 0022.2 3a6.6 6.6 0 00-6.5 8A18.6 18.6 0 012.2 4.3a6.6 6.6 0 00-.9 3.3 6.6 6.6 0 003 5.5 6.5 6.5 0 01-3-.8c0 3.2 2.3 5.9 5.2 6.5a6.5 6.5 0 01-1.7.2 5.8 5.8 0 01-1.2-.1 6.6 6.6 0 006.1 4.5 13.2 13.2 0 01-8.1 2.8H0A18.5 18.5 0 0010 29 18.5 18.5 0 0028.8 9.5 13 13 0 0032 6z"/></symbol><symbol id="icon-twitter2" viewBox="0 0 32 32"><path fill="var(--color2, #afb1b8)" d="M32 6c-1.2.6-2.5 1-3.8 1.1a6.5 6.5 0 003-3.6A13.1 13.1 0 0126.8 5 6.6 6.6 0 0022.2 3a6.6 6.6 0 00-6.5 8A18.6 18.6 0 012.2 4.3a6.6 6.6 0 00-.9 3.3 6.6 6.6 0 003 5.5 6.5 6.5 0 01-3-.8c0 3.2 2.3 5.9 5.2 6.5a6.5 6.5 0 01-1.7.2 5.8 5.8 0 01-1.2-.1 6.6 6.6 0 006.1 4.5 13.2 13.2 0 01-8.1 2.8H0A18.5 18.5 0 0010 29 18.5 18.5 0 0028.8 9.5 13 13 0 0032 6z"/></symbol><symbol id="vector" viewBox="0 0 32 32"><path d="M32 3.2L28.8 0 16 12.8 3.2 0 0 3.2 12.8 16 0 28.8 3.2 32 16 19.2 28.8 32l3.2-3.2L19.2 16 32 3.2z"/></symbol><symbol id="icon-contact-modal" viewBox="0 0 32 32"><path d="M16 16a8 8 0 100-16 8 8 0 000 16zm0 4c-5.3 0-16 2.7-16 8v2c0 1.1.9 2 2 2h28a2 2 0 002-2v-2c0-5.3-10.7-8-16-8z"/></symbol><symbol id="icon-galochka-modal" viewBox="0 0 32 32"><path fill="var(--color1, #fff)" stroke="var(--color1, #fff)" stroke-width=".5" d="M4.8 15.4l-.2-.2-2.5 2.4 9 8.6 18.8-18-2.5-2.4L11 21.4l-6.3-6z"/></symbol><symbol id="icon-mail-modal" viewBox="0 0 32 32"><path d="M28 4H4a3 3 0 00-3 3v18a3 3 0 003 3h24a3 3 0 003-3V7a3 3 0 00-3-3zm-.6 6.4L16.8 17c-.5.3-1.1.3-1.6 0L4.6 10.4C4.2 10 4 9.7 4 9.3c0-1 1-1.6 2-1l10 6.2 10-6.3a1.3 1.3 0 111.4 2.2z"/></symbol><symbol id="icon-phone-modal" viewBox="0 0 32 32"><path d="M27.4 20.9l-4.2-.5a3.3 3.3 0 00-2.7 1l-3 3a24.9 24.9 0 01-11-11l3.1-3a3.3 3.3 0 001-2.7L10 3.5a3.3 3.3 0 00-3.3-3H3.9A3.3 3.3 0 00.6 4 28.1 28.1 0 0027 30.3c1.9.1 3.4-1.4 3.4-3.3V24c0-1.6-1.2-3-2.9-3.2z"/></symbol><symbol id="icon-send-icon" viewBox="0 0 32 32"><path fill="var(--color1, #fff)" d="M32 0L0 18l10.2 3.8L26 7 14 23.2V32l5.7-6.7L27 28l5-28z"/></symbol><symbol id="icon-close" viewBox="0 0 32 32"><path d="M31.4 3.2L28.3 0 15.7 12.6 3.2 0 0 3.2l12.6 12.5L0 28.3l3.2 3.1L15.7 19l12.6 12.5 3.1-3.1L19 15.7 31.4 3.2z"/></symbol><symbol id="icon-menu" viewBox="0 0 48 32"><path d="M0 5.3V0h48v5.3H0zm0 13.4h48v-5.4H0v5.4zM0 32h48v-5.3H0V32z"/></symbol><symbol id="icon-close" viewBox="0 0 32 32"><path d="M31.4 3.2L28.3 0 15.7 12.6 3.2 0 0 3.2l12.6 12.5L0 28.3l3.2 3.1L15.7 19l12.6 12.5 3.1-3.1L19 15.7 31.4 3.2z"/></symbol><symbol id="icon-menu" viewBox="0 0 48 32"><path d="M0 5.3V0h48v5.3H0zm0 13.4h48v-5.4H0v5.4zM0 32h48v-5.3H0V32z"/></symbol></defs></svg>